<?xml version="1.0"?>
<svg xmlns="http://www.w3.org/2000/svg" viewBox="0 0 50 50">
    <path d="M 24 2 C 22.897 2 22 2.897 22 4 L 22 4.0449219 C 16.741 4.4879219 12.3 8.3790781 11.25 13.580078 C 11.176 13.866078 11.118125 14.187109 11.078125 14.537109 C 11.053125 14.622109 11.016906 14.751016 11.003906 14.916016 C 10.940906 15.664016 10.766375 16.669344 10.484375 17.902344 C 10.450375 18.052344 10.413906 18.199609 10.378906 18.349609 C 12.371906 17.185609 14.731 17 16 17 C 19.395 17 22.439578 17.802953 23.142578 18.001953 L 26.855469 18.001953 C 27.556469 17.800953 30.557 17.001953 34 17.001953 C 35.008 17.001953 37.52225 17.1505 39.65625 18.4375 L 39.529297 17.962891 C 39.239297 16.706891 39.060094 15.682062 38.996094 14.914062 C 38.983094 14.763063 38.951875 14.642063 38.921875 14.539062 C 38.881875 14.192063 38.825719 13.875766 38.761719 13.634766 C 37.701719 8.3827656 33.26 4.4879219 28 4.0449219 L 28 4 C 28 2.897 27.103 2 26 2 L 24 2 z M 24 4 L 26 4 L 26 18 L 24 18 L 24 4 z M 20.085938 8.0019531 C 20.474766 8.0352344 20.822922 8.2964531 20.951172 8.6894531 C 21.122172 9.2134531 20.836453 9.7762187 20.314453 9.9492188 C 20.205453 9.9862188 17.872453 10.805703 16.939453 13.345703 C 16.790453 13.750703 16.407 14 16 14 C 15.885 14 15.768297 13.9795 15.654297 13.9375 C 15.136297 13.7475 14.8715 13.173297 15.0625 12.654297 C 16.3395 9.1762969 19.553453 8.0928281 19.689453 8.0488281 C 19.821453 8.0058281 19.956328 7.9908594 20.085938 8.0019531 z M 16.017578 19 C 14.373578 19 10.431406 19.351656 9.3164062 22.597656 C 9.3164062 22.597656 7.0833437 27.527344 6.5273438 28.777344 C 4.7223438 32.833344 3.0175781 36.662469 3.0175781 38.980469 C 3.0115781 39.312469 3.08775 40.492531 4.34375 41.769531 C 5.45975 42.903531 8.0799688 43.977766 11.542969 44.759766 C 12.449969 43.818766 13.652875 42.336813 14.046875 40.757812 C 14.181875 40.221812 14.724766 39.897297 15.259766 40.029297 C 15.795766 40.163297 16.119328 40.706187 15.986328 41.242188 C 15.571328 42.900188 14.523406 44.407766 13.566406 45.509766 C 14.888406 47.181766 18.660578 48 25.017578 48 C 31.705578 48 35.442516 47.144078 36.603516 45.330078 C 36.029516 44.508078 35.373687 43.403531 35.054688 42.269531 C 34.905687 41.738531 35.215094 41.187109 35.746094 41.037109 C 36.276094 40.888109 36.828516 41.197516 36.978516 41.728516 C 37.281516 42.804516 38.061766 43.978656 38.634766 44.722656 C 42.024766 43.943656 44.589453 42.887531 45.689453 41.769531 C 46.946453 40.493531 47.023578 39.310047 47.017578 38.998047 C 47.017578 36.662047 45.313766 32.833297 43.509766 28.779297 C 42.952766 27.529297 40.728516 22.623047 40.728516 22.623047 C 39.470516 19.262047 35.272578 19.001953 34.017578 19.001953 C 30.458578 19.001953 27.3435 19.947031 27.3125 19.957031 L 27.017578 20.001953 L 22.728516 20 C 22.696516 19.99 19.503578 19 16.017578 19 z M 18.375 21 C 21.25 21 24.017578 23 24.017578 23 L 24.017578 27.267578 C 24.309578 27.101578 24.641 27 25 27 C 25.373 27 25.718578 27.109109 26.017578 27.287109 L 26.017578 23 C 26.017578 23 28.785156 21 31.660156 21 C 34.705156 21 36.017578 23.875 36.017578 26 C 36.017578 26.087 36.000281 26.164141 35.988281 26.244141 C 35.865281 28.467141 34.133688 32.859094 33.929688 33.371094 C 33.772687 33.761094 33.396 34 33 34 C 32.876 34 32.750906 33.977687 32.628906 33.929688 C 32.115906 33.724688 31.866312 33.141906 32.070312 32.628906 C 32.443312 31.695906 33.230781 29.573187 33.675781 27.867188 C 32.801781 28.024187 32.017578 28 32.017578 28 L 26.722656 28 C 26.895656 28.295 27 28.634 27 29 L 27 30 L 27 38 L 26 38 L 26 32 L 24 32 L 24 38 L 23 38 L 23 30 L 23 29 C 23 28.634 23.106344 28.295 23.277344 28 L 18.017578 28 C 18.017578 28 17.210266 28.023375 16.322266 27.859375 C 16.766266 29.566375 17.555687 31.693906 17.929688 32.628906 C 18.134687 33.141906 17.885094 33.724688 17.371094 33.929688 C 17.250094 33.977687 17.124 34 17 34 C 16.603 34 16.227312 33.761094 16.070312 33.371094 C 15.858312 32.840094 14 28.131 14 26 C 14 25.962 14.016484 25.929578 14.021484 25.892578 C 14.063484 23.779578 15.38 21 18.375 21 z M 21 33.199219 L 21 38 L 18 38 L 21 33.199219 z M 29 33.199219 L 32 38 L 29 38 L 29 33.199219 z M 29.960938 37.001953 C 29.973938 37.021953 29.987 37.040547 30 37.060547 L 30 37.001953 L 29.960938 37.001953 z"/>
</svg>
