<?xml version="1.0"?>
<svg xmlns="http://www.w3.org/2000/svg" viewBox="0 0 50 50">
    <path style="line-height:normal;text-indent:0;text-align:start;text-decoration-line:none;text-decoration-style:solid;text-decoration-color:#000;text-transform:none;block-progression:tb;isolation:auto;mix-blend-mode:normal" d="M 24.984375 2.9863281 A 1.0001 1.0001 0 0 0 24.8125 3.0039062 C 16.868959 3.0707715 9.9230929 7.3597379 6.109375 13.734375 A 1.0001 1.0001 0 0 0 5.9042969 14.091797 C 4.060453 17.30898 3 21.030653 3 25 C 3 28.985253 4.0682023 32.721288 5.9257812 35.947266 A 1.0001 1.0001 0 0 0 6.0839844 36.220703 C 9.8904087 42.617105 16.844926 46.92365 24.802734 46.994141 A 1.0001 1.0001 0 0 0 25.185547 46.996094 C 33.146729 46.929778 40.105268 42.622112 43.914062 36.224609 A 1.0001 1.0001 0 0 0 44.070312 35.953125 C 45.93006 32.725765 47 28.98776 47 25 C 47 21.031604 45.94068 17.310406 44.097656 14.09375 A 1.0001 1.0001 0 0 0 43.886719 13.728516 A 1.0001 1.0001 0 0 0 43.882812 13.722656 C 40.068883 7.3568842 33.130328 3.0756427 25.195312 3.0058594 A 1.0001 1.0001 0 0 0 24.984375 2.9863281 z M 23.970703 5.0253906 C 23.980409 5.0248997 23.99029 5.0258677 24 5.0253906 L 24 7.0371094 C 22.757636 7.1088372 21.514084 7.3094131 20.267578 7.6484375 C 20.011578 7.7184375 19.793109 7.8852344 19.662109 8.1152344 C 19.530109 8.3452344 19.496406 8.6209531 19.566406 8.8769531 L 20.095703 10.820312 C 18.381703 11.414312 16.780813 12.320281 15.382812 13.488281 L 13.988281 12.029297 C 13.804281 11.837297 13.552109 11.726703 13.287109 11.720703 C 13.028109 11.696703 12.764266 11.815047 12.572266 11.998047 C 11.581283 12.946344 10.724072 13.981898 9.9960938 15.076172 L 8.2617188 14.0625 C 11.655011 8.875549 17.384475 5.3585037 23.970703 5.0253906 z M 26 5.03125 C 32.597083 5.3564179 38.340167 8.8681796 41.738281 14.0625 L 40.003906 15.076172 C 39.275886 13.982141 38.416858 12.946434 37.425781 11.998047 C 37.233781 11.815047 36.969891 11.695703 36.712891 11.720703 C 36.447891 11.726703 36.195719 11.837297 36.011719 12.029297 L 34.617188 13.488281 C 33.230187 12.330281 31.637344 11.426219 29.902344 10.824219 L 30.433594 8.8769531 C 30.503594 8.6209531 30.469891 8.3462344 30.337891 8.1152344 C 30.205891 7.8852344 29.987422 7.7184375 29.732422 7.6484375 C 28.485916 7.3094131 27.242364 7.1088372 26 7.0371094 L 26 5.03125 z M 25 14 C 25.969 14 26.907734 14.124375 27.802734 14.359375 L 27.888672 14.404297 L 26.578125 19.208984 L 26.580078 19.208984 C 27.535078 19.468984 28.394656 19.958234 29.097656 20.615234 L 29.144531 20.662109 L 32.599609 17.046875 L 32.667969 17.111328 C 34.033969 18.439328 35.055891 20.119859 35.587891 22.005859 L 30.775391 23.367188 C 30.920391 23.886187 31 24.434 31 25 C 31 25.566 30.922391 26.112813 30.775391 26.632812 L 35.587891 27.994141 C 35.046891 29.910141 33.999609 31.613172 32.599609 32.951172 C 32.581609 32.932172 29.146484 29.337891 29.146484 29.337891 C 28.435484 30.017891 27.556125 30.523062 26.578125 30.789062 L 27.894531 35.613281 C 27.907531 35.610281 27.921594 35.608469 27.933594 35.605469 L 27.894531 35.615234 L 27.894531 35.613281 C 26.972531 35.864281 26.002 36 25 36 C 23.998 36 23.026516 35.866234 22.103516 35.615234 L 22.179688 35.339844 L 23.421875 30.791016 C 22.444875 30.525016 21.566469 30.018844 20.855469 29.339844 L 17.400391 32.951172 L 17.398438 32.949219 C 15.999437 31.611219 14.953109 29.909141 14.412109 27.994141 L 14.412109 27.992188 L 19.224609 26.630859 L 19.224609 26.626953 C 19.078609 26.110953 19 25.565 19 25 C 19 24.434 19.077609 23.886188 19.224609 23.367188 C 19.220996 23.366166 14.413109 22.005859 14.412109 22.005859 C 14.953109 20.089859 16.000391 18.386828 17.400391 17.048828 L 17.404297 17.052734 L 20.851562 20.660156 L 20.855469 20.662109 C 21.566469 19.982109 22.444875 19.476938 23.421875 19.210938 C 23.417875 19.195937 22.105469 14.387719 22.105469 14.386719 C 23.028469 14.134719 23.998 14 25 14 z M 7.2539062 15.789062 L 8.9804688 16.798828 C 8.4540653 17.836825 8.0223716 18.944814 7.6933594 20.107422 C 7.6213594 20.362422 7.65225 20.636188 7.78125 20.867188 C 7.91025 21.098188 8.1278125 21.268797 8.3828125 21.341797 L 10.322266 21.890625 C 10.108266 22.908625 10 23.951 10 25 C 10 26.05 10.107266 27.091375 10.322266 28.109375 L 8.3847656 28.658203 C 8.1297656 28.730203 7.9122031 28.900813 7.7832031 29.132812 C 7.6542031 29.364813 7.6203594 29.637578 7.6933594 29.892578 C 8.0231093 31.055186 8.4563691 32.163175 8.9824219 33.201172 L 7.2539062 34.210938 C 5.8216976 31.453554 5 28.325844 5 25 C 5 21.674156 5.8216976 18.546446 7.2539062 15.789062 z M 42.746094 15.789062 C 44.178302 18.546447 45 21.674156 45 25 C 45 28.325844 44.178302 31.453554 42.746094 34.210938 L 41.019531 33.201172 C 41.545935 32.163175 41.977628 31.055186 42.306641 29.892578 C 42.378641 29.637578 42.34775 29.363812 42.21875 29.132812 C 42.08975 28.901812 41.871234 28.730203 41.615234 28.658203 L 39.677734 28.111328 C 39.892734 27.092328 40 26.049 40 25 C 40 23.951 39.892734 22.908625 39.677734 21.890625 L 41.615234 21.341797 C 41.870234 21.269797 42.087797 21.099188 42.216797 20.867188 C 42.345797 20.635187 42.379641 20.362422 42.306641 20.107422 C 41.976891 18.944814 41.543631 17.836825 41.017578 16.798828 L 42.746094 15.789062 z M 9.9960938 34.925781 C 10.723927 36.019306 11.583554 37.053961 12.574219 38.001953 C 12.766219 38.184953 13.027109 38.302297 13.287109 38.279297 C 13.552109 38.273297 13.804281 38.162703 13.988281 37.970703 L 15.382812 36.511719 C 16.782812 37.681719 18.388469 38.588641 20.105469 39.181641 C 19.962469 39.671641 19.790406 40.305047 19.566406 41.123047 C 19.496406 41.379047 19.530109 41.651813 19.662109 41.882812 C 19.794109 42.112812 20.012578 42.281562 20.267578 42.351562 C 21.511857 42.690768 22.763544 42.89194 24 42.964844 L 24 44.974609 C 17.40216 44.650413 11.660129 41.133281 8.2617188 35.939453 L 9.9960938 34.925781 z M 40.003906 34.925781 L 41.738281 35.939453 C 38.339871 41.133281 32.59784 44.650413 26 44.974609 L 26 42.964844 C 27.236456 42.891976 28.488143 42.689981 29.732422 42.351562 C 29.988422 42.281562 30.206891 42.113813 30.337891 41.882812 C 30.469891 41.652813 30.503594 41.379047 30.433594 41.123047 L 29.902344 39.179688 C 31.616344 38.586688 33.219187 37.679719 34.617188 36.511719 L 36.011719 37.970703 C 36.195719 38.162703 36.447891 38.273297 36.712891 38.279297 C 36.970891 38.303297 37.235734 38.184953 37.427734 38.001953 C 38.418306 37.05405 39.276115 36.019548 40.003906 34.925781 z"/>
</svg>
